<svg width="24" height="24" viewBox="0 0 24 24" fill="none" xmlns="http://www.w3.org/2000/svg">
<path d="M13.2993 16.4898C12.3804 16.4898 11.4992 16.1327 10.8494 15.497C10.1997 14.8612 9.83466 13.999 9.83466 13.1C9.83466 12.2009 10.1997 11.3387 10.8494 10.703C11.4992 10.0672 12.3804 9.71008 13.2993 9.71008" stroke="white" stroke-width="1.2" stroke-linecap="round" stroke-linejoin="round"/>
<path d="M13.2993 6.60355V4.59998" stroke="white" stroke-width="1.2" stroke-linecap="round" stroke-linejoin="round"/>
<path d="M8.60394 8.50596L7.15604 7.08929" stroke="white" stroke-width="1.2" stroke-linecap="round" stroke-linejoin="round"/>
<path d="M6.65962 13.1H4.61188" stroke="white" stroke-width="1.2" stroke-linecap="round" stroke-linejoin="round"/>
<path d="M8.60394 17.694L7.15604 19.1107" stroke="white" stroke-width="1.2" stroke-linecap="round" stroke-linejoin="round"/>
<path d="M13.2993 19.5964V21.6" stroke="white" stroke-width="1.2" stroke-linecap="round" stroke-linejoin="round"/>
<path d="M16.6087 10.0643C16.6468 9.68643 16.7959 9.32748 17.0382 9.03091C17.2805 8.73433 17.6054 8.51286 17.9737 8.39331C18.342 8.27377 18.7378 8.26128 19.1132 8.35737C19.4887 8.45345 19.8275 8.65399 20.0888 8.93468C20.3501 9.21537 20.5226 9.56417 20.5854 9.93883C20.6482 10.3135 20.5986 10.6979 20.4427 11.0456C20.2867 11.3932 20.031 11.6892 19.7067 11.8975C19.3823 12.1059 19.0032 12.2178 18.6151 12.2196H15.3056" stroke="white" stroke-width="1.2" stroke-linecap="round" stroke-linejoin="round"/>
<path d="M15.5125 16.328C15.5485 16.706 15.6959 17.0658 15.9366 17.3636C16.1774 17.6614 16.5012 17.8845 16.8689 18.0059C17.2366 18.1272 17.6324 18.1416 18.0084 18.0474C18.3843 17.9531 18.7242 17.7542 18.9869 17.4747C19.2496 17.1953 19.4239 16.8472 19.4886 16.4729C19.5532 16.0985 19.5055 15.7137 19.3513 15.3653C19.197 15.0169 18.9427 14.7198 18.6194 14.5099C18.296 14.3 17.9173 14.1863 17.5292 14.1827H14.2094" stroke="white" stroke-width="1.2" stroke-linecap="round" stroke-linejoin="round"/>
</svg>
