<svg width="24" height="24" viewBox="0 0 24 24" fill="none" xmlns="http://www.w3.org/2000/svg">
<path d="M17.0088 18.5721C17.6653 18.4028 18.2513 18.0266 18.6814 17.4982C19.1116 16.9697 19.3636 16.3166 19.4008 15.6337C19.438 14.9508 19.2585 14.2737 18.8884 13.7008C18.5182 13.1279 17.9767 12.6891 17.3425 12.4482C16.7728 12.267 16.1669 12.2346 15.5815 12.3542C14.9961 12.4738 14.4504 12.7415 13.9954 13.132C13.1918 13.931 12.5102 14.8459 11.9729 15.847C10.6078 17.8883 7.92805 19.4193 5.49101 18.1434C4.907 17.8454 4.41907 17.3858 4.08422 16.8183C3.74938 16.2508 3.58144 15.5988 3.60002 14.9386C3.60002 13.955 3.98643 13.0116 4.67454 12.3151C5.36265 11.6187 6.29629 11.2261 7.27075 11.2234H7.79659C8.00861 10.546 8.3896 9.93499 8.90298 9.44904C9.41636 8.9631 10.0449 8.61852 10.7282 8.4484C11.4116 8.27828 12.1268 8.28832 12.8051 8.47757C13.4835 8.66681 14.1023 9.0289 14.6021 9.52908C14.8348 9.7656 15.0385 10.0295 15.2088 10.315" stroke="white" stroke-width="1.2" stroke-linecap="round" stroke-linejoin="round"/>
<path d="M18.5054 12.9483C18.9782 12.8116 19.4132 12.5664 19.7763 12.2317C20.1395 11.897 20.4209 11.482 20.5986 11.0192C20.0967 10.9838 19.6101 10.8297 19.1782 10.5692C18.7462 10.3088 18.3811 9.94936 18.1123 9.52006C17.8435 9.09076 17.6786 8.60363 17.631 8.09807C17.5833 7.59252 17.6543 7.08274 17.838 6.60999H17.6155C16.8745 6.61163 16.1567 6.87155 15.5837 7.3458C15.0106 7.82005 14.6175 8.47952 14.4706 9.21266" stroke="white" stroke-width="1.2" stroke-linecap="round" stroke-linejoin="round"/>
</svg>
