<svg width="24" height="24" viewBox="0 0 24 24" fill="none" xmlns="http://www.w3.org/2000/svg">
<path d="M14.4446 7.19816C14.5906 6.46644 14.9826 5.80813 15.5541 5.33466C16.1257 4.86119 16.8418 4.60165 17.5811 4.59998H17.8124C17.6587 4.97303 17.5801 5.37324 17.5811 5.77728C17.5822 6.6018 17.8949 7.39482 18.4554 7.99457C19.0158 8.59432 19.7818 8.95561 20.597 9.00471C20.4154 9.46471 20.1329 9.87718 19.7707 10.2112C19.4086 10.5451 18.9762 10.792 18.506 10.9331" stroke="white" stroke-width="1.2" stroke-linecap="round" stroke-linejoin="round"/>
<path d="M15.4799 13.2568C15.5072 12.962 15.6179 12.6813 15.799 12.4483C15.98 12.2153 16.2236 12.0399 16.5007 11.9429C16.7778 11.8458 17.0768 11.8314 17.3618 11.9013C17.6468 11.9711 17.9059 12.1223 18.1081 12.3368C18.3104 12.5513 18.4472 12.82 18.5022 13.1109C18.5573 13.4017 18.5282 13.7024 18.4186 13.9771C18.3089 14.2517 18.1233 14.4887 17.8839 14.6597C17.6444 14.8308 17.3613 14.9286 17.0682 14.9416H7.73901" stroke="white" stroke-width="1.2" stroke-linecap="round" stroke-linejoin="round"/>
<path d="M10.7953 11.5619C10.8395 11.1699 11.0299 10.8096 11.3278 10.5541C11.6257 10.2987 12.0087 10.1673 12.3991 10.1867C12.7895 10.2061 13.1579 10.3748 13.4295 10.6585C13.7011 10.9422 13.8556 11.3196 13.8615 11.7142C13.8615 12.1233 13.7005 12.5157 13.4139 12.805C13.1274 13.0943 12.7387 13.2569 12.3334 13.2569H7.71909" stroke="white" stroke-width="1.2" stroke-linecap="round" stroke-linejoin="round"/>
<path d="M11.0366 18.1995C11.0638 18.4965 11.1758 18.7793 11.359 19.0134C11.5421 19.2475 11.7886 19.423 12.0685 19.5186C12.3484 19.6142 12.6498 19.6258 12.9362 19.552C13.2225 19.4782 13.4815 19.3222 13.6818 19.1028C13.882 18.8834 14.015 18.6101 14.0646 18.316C14.1141 18.0219 14.0782 17.7196 13.961 17.4457C13.8438 17.1718 13.6505 16.9381 13.4045 16.7728C13.1584 16.6076 12.8702 16.5179 12.5747 16.5147H9.46832C8.22794 16.6336 6.97648 16.5166 5.77885 16.1696C5.12986 15.9185 4.57277 15.4725 4.18269 14.8918C3.79261 14.311 3.58831 13.6235 3.59733 12.9219C3.59601 12.4351 3.69001 11.9527 3.87394 11.5027C4.05788 11.0526 4.32811 10.6437 4.66911 10.2995C5.0101 9.95522 5.41514 9.68241 5.86092 9.49672C6.30671 9.31102 6.78446 9.21612 7.2667 9.21746H7.78946C8.0315 8.46576 8.48109 7.79946 9.08538 7.29689C9.68967 6.79431 10.4235 6.47636 11.2007 6.38043C11.9778 6.28449 12.7659 6.41454 13.4724 6.7553C14.1788 7.09607 14.7742 7.63337 15.1885 8.30403" stroke="white" stroke-width="1.2" stroke-linecap="round" stroke-linejoin="round"/>
</svg>
