<svg width="24" height="24" viewBox="0 0 24 24" fill="none" xmlns="http://www.w3.org/2000/svg">
<path d="M13.1116 9.88972C13.2893 9.60834 13.5273 9.3693 13.8087 9.1896C14.09 9.00991 14.4078 8.89398 14.7393 8.85005C15.0709 8.80613 15.4082 8.8353 15.7271 8.93547C16.0461 9.03565 16.3389 9.20438 16.5847 9.42966C16.8305 9.65493 17.0233 9.93122 17.1493 10.2389C17.2754 10.5465 17.3316 10.878 17.314 11.2096C17.2964 11.5413 17.2054 11.865 17.0474 12.1578C16.8895 12.4506 16.6685 12.7052 16.4002 12.9036" stroke="white" stroke-width="1.2" stroke-linecap="round" stroke-linejoin="round"/>
<path d="M13.8705 6.87586L13.4759 5.59998" stroke="white" stroke-width="1.2" stroke-linecap="round" stroke-linejoin="round"/>
<path d="M18.9905 13.0543L20.1744 13.6872" stroke="white" stroke-width="1.2" stroke-linecap="round" stroke-linejoin="round"/>
<path d="M19.3144 9.75911L20.5994 9.36731" stroke="white" stroke-width="1.2" stroke-linecap="round" stroke-linejoin="round"/>
<path d="M17.1894 7.19739L17.8269 6.02197" stroke="white" stroke-width="1.2" stroke-linecap="round" stroke-linejoin="round"/>
<path d="M15.1353 17.5852C15.7084 17.4497 16.2221 17.1338 16.5996 16.6847C16.9771 16.2356 17.1983 15.6774 17.2301 15.0933C17.262 14.5092 17.1028 13.9305 16.7764 13.4436C16.4499 12.9567 15.9737 12.5875 15.4187 12.3913C14.9291 12.2395 14.4087 12.2133 13.9062 12.3152C13.4037 12.4171 12.9354 12.6437 12.5449 12.974C11.8417 13.642 11.2477 14.4148 10.7843 15.2645C9.6004 17.0126 7.27309 18.2784 5.20888 17.2035C4.71511 16.9502 4.30268 16.5647 4.01832 16.0906C3.73396 15.6165 3.58904 15.0728 3.60001 14.5211C3.60001 13.6898 3.93262 12.8926 4.52468 12.3047C5.11674 11.7169 5.91974 11.3867 6.75704 11.3867H7.20226C7.38469 10.8143 7.7121 10.298 8.15313 9.88725C8.59416 9.47652 9.13403 9.1851 9.72103 9.04091C10.308 8.89672 10.9225 8.9046 11.5055 9.06379C12.0886 9.22298 12.6207 9.52815 13.0509 9.95006C13.2511 10.1505 13.4277 10.3729 13.577 10.6131" stroke="white" stroke-width="1.2" stroke-linecap="round" stroke-linejoin="round"/>
</svg>
