<svg width="24" height="24" viewBox="0 0 24 24" fill="none" xmlns="http://www.w3.org/2000/svg">
<path d="M17.0083 16.4607C17.8268 16.2842 18.5425 15.7915 18.9995 15.0898C19.4566 14.3882 19.618 13.5343 19.4487 12.7142C19.2793 11.8941 18.793 11.174 18.0954 10.7108C17.3978 10.2476 16.5456 10.0787 15.7241 10.2409" stroke="white" stroke-width="1.2" stroke-linecap="round" stroke-linejoin="round"/>
<path d="M8.04933 16.4001C7.15365 16.5735 6.22557 16.4343 5.42019 16.0056C4.85255 15.702 4.38122 15.2456 4.05954 14.6879C3.73786 14.1303 3.57868 13.4937 3.60001 12.8502C3.60268 11.8774 3.99027 10.9451 4.67808 10.2572C5.36589 9.56933 6.29799 9.18169 7.2707 9.17902H7.79653C8.00855 8.50781 8.38954 7.90239 8.90291 7.42087C9.41629 6.93936 10.0448 6.59793 10.7281 6.42936C11.4115 6.26079 12.1267 6.27074 12.805 6.45826C13.4834 6.64578 14.1022 7.00457 14.602 7.50018C14.8346 7.73454 15.0383 7.99599 15.2087 8.27892" stroke="white" stroke-width="1.2" stroke-linecap="round" stroke-linejoin="round"/>
<path d="M18.5049 10.8882C18.977 10.7514 19.4113 10.5079 19.7742 10.1764C20.1372 9.84501 20.4191 9.43454 20.5981 8.97676C20.0962 8.94167 19.6096 8.78892 19.1777 8.53085C18.7457 8.27278 18.3806 7.91665 18.1118 7.49126C17.843 7.06588 17.6782 6.58319 17.6305 6.08225C17.5828 5.5813 17.6538 5.07617 17.8375 4.60773H17.615C16.8735 4.60744 16.1548 4.8643 15.5813 5.33455C15.0079 5.80479 14.6152 6.45934 14.4702 7.18667" stroke="white" stroke-width="1.2" stroke-linecap="round" stroke-linejoin="round"/>
<path d="M11.8916 16.7136H10.5568C10.5136 16.7134 10.4713 16.7006 10.4352 16.6768C10.3991 16.6529 10.3707 16.6191 10.3536 16.5794C10.3364 16.5397 10.3312 16.4958 10.3385 16.4532C10.3459 16.4106 10.3655 16.371 10.395 16.3394L13.4287 12.9817C13.4632 12.9442 13.5096 12.9197 13.5601 12.9124C13.6106 12.905 13.662 12.9152 13.7059 12.9413C13.7497 12.9674 13.7833 13.0077 13.8009 13.0556C13.8186 13.1034 13.8192 13.1559 13.8028 13.2042L12.9028 15.7326" stroke="white" stroke-width="0.75" stroke-linecap="round" stroke-linejoin="round"/>
<path d="M12.9538 15.8337H14.2886C14.3327 15.8318 14.3764 15.8432 14.414 15.8662C14.4517 15.8892 14.4816 15.923 14.5001 15.9631C14.5185 16.0032 14.5246 16.0479 14.5175 16.0915C14.5105 16.1351 14.4906 16.1756 14.4605 16.2079L11.4269 19.5656C11.3893 19.5927 11.3442 19.6074 11.2978 19.6077C11.2514 19.608 11.2062 19.5937 11.1683 19.567C11.1304 19.5402 11.1019 19.5023 11.0866 19.4586C11.0713 19.4148 11.0701 19.3674 11.083 19.3229L11.9729 16.8046" stroke="white" stroke-width="0.75" stroke-linecap="round" stroke-linejoin="round"/>
</svg>
