<svg width="24" height="24" viewBox="0 0 24 24" fill="none" xmlns="http://www.w3.org/2000/svg">
<path d="M13.4473 8.52035C13.8372 8.24143 14.3051 8.09255 14.7845 8.09488C15.0896 8.09353 15.3919 8.15262 15.674 8.26873C15.956 8.38484 16.2123 8.55566 16.428 8.77135C16.6437 8.98703 16.8146 9.2433 16.9307 9.52536C17.0468 9.80742 17.1059 10.1097 17.1045 10.4147C17.1068 10.7927 17.0155 11.1653 16.8388 11.4994C16.662 11.8335 16.4052 12.1186 16.0914 12.3293" stroke="white" stroke-width="1.2" stroke-linecap="round" stroke-linejoin="round"/>
<path d="M14.7845 5.96756V4.59998" stroke="white" stroke-width="1.2" stroke-linecap="round" stroke-linejoin="round"/>
<path d="M17.9353 13.5551L18.8977 14.5276" stroke="white" stroke-width="1.2" stroke-linecap="round" stroke-linejoin="round"/>
<path d="M19.232 10.4147H20.5997" stroke="white" stroke-width="1.2" stroke-linecap="round" stroke-linejoin="round"/>
<path d="M17.9353 7.27438L18.8977 6.30188" stroke="white" stroke-width="1.2" stroke-linecap="round" stroke-linejoin="round"/>
<path d="M7.04451 16.1484C6.40793 16.1811 5.77434 16.0411 5.21081 15.7432C4.71786 15.4808 4.30674 15.0877 4.02258 14.607C3.73842 14.1262 3.59221 13.5765 3.6 13.0182C3.6 12.1665 3.93835 11.3497 4.54062 10.7475C5.1429 10.1452 5.95976 9.80689 6.8115 9.80689H7.26739C7.44884 9.21624 7.78025 8.68267 8.22931 8.25822C8.67837 7.83376 9.22976 7.53289 9.82973 7.38495C10.4297 7.23701 11.0578 7.24705 11.6527 7.41407C12.2476 7.5811 12.7891 7.89942 13.2244 8.33801C13.4306 8.54134 13.6109 8.7693 13.7613 9.01673" stroke="white" stroke-width="1.2" stroke-linecap="round" stroke-linejoin="round"/>
<path d="M10.1952 14.9024C10.5197 14.9024 10.7828 14.6393 10.7828 14.3148C10.7828 13.9904 10.5197 13.7273 10.1952 13.7273C9.87071 13.7273 9.60764 13.9904 9.60764 14.3148C9.60764 14.6393 9.87071 14.9024 10.1952 14.9024Z" stroke="white" stroke-width="0.6" stroke-linecap="round" stroke-linejoin="round"/>
<path d="M12.3936 16.8981C12.7181 16.8981 12.9812 16.635 12.9812 16.3105C12.9812 15.986 12.7181 15.723 12.3936 15.723C12.0691 15.723 11.806 15.986 11.806 16.3105C11.806 16.635 12.0691 16.8981 12.3936 16.8981Z" stroke="white" stroke-width="0.6" stroke-linecap="round" stroke-linejoin="round"/>
<path d="M16.2535 14.7201C16.4773 14.7201 16.6588 14.5387 16.6588 14.3149C16.6588 14.0911 16.4773 13.9097 16.2535 13.9097C16.0297 13.9097 15.8483 14.0911 15.8483 14.3149C15.8483 14.5387 16.0297 14.7201 16.2535 14.7201Z" fill="white"/>
<path d="M14.2982 16.8981C14.522 16.8981 14.7035 16.7166 14.7035 16.4929C14.7035 16.2691 14.522 16.0876 14.2982 16.0876C14.0744 16.0876 13.893 16.2691 13.893 16.4929C13.893 16.7166 14.0744 16.8981 14.2982 16.8981Z" fill="white"/>
<path d="M12.343 18.6C12.5668 18.6 12.7482 18.4186 12.7482 18.1948C12.7482 17.971 12.5668 17.7896 12.343 17.7896C12.1192 17.7896 11.9377 17.971 11.9377 18.1948C11.9377 18.4186 12.1192 18.6 12.343 18.6Z" fill="white"/>
<path d="M10.1446 16.8981C10.3684 16.8981 10.5498 16.7166 10.5498 16.4929C10.5498 16.2691 10.3684 16.0876 10.1446 16.0876C9.92078 16.0876 9.73935 16.2691 9.73935 16.4929C9.73935 16.7166 9.92078 16.8981 10.1446 16.8981Z" fill="white"/>
<path d="M12.0998 14.7201C12.3237 14.7201 12.5051 14.5387 12.5051 14.3149C12.5051 14.0911 12.3237 13.9097 12.0998 13.9097C11.876 13.9097 11.6946 14.0911 11.6946 14.3149C11.6946 14.5387 11.876 14.7201 12.0998 14.7201Z" fill="white"/>
<path d="M8.18929 14.7201C8.4131 14.7201 8.59453 14.5387 8.59453 14.3149C8.59453 14.0911 8.4131 13.9097 8.18929 13.9097C7.96549 13.9097 7.78406 14.0911 7.78406 14.3149C7.78406 14.5387 7.96549 14.7201 8.18929 14.7201Z" fill="white"/>
<path d="M14.2476 14.9024C14.5721 14.9024 14.8352 14.6393 14.8352 14.3148C14.8352 13.9904 14.5721 13.7273 14.2476 13.7273C13.9231 13.7273 13.66 13.9904 13.66 14.3148C13.66 14.6393 13.9231 14.9024 14.2476 14.9024Z" stroke="white" stroke-width="0.6" stroke-linecap="round" stroke-linejoin="round"/>
</svg>
