<svg width="24" height="24" viewBox="0 0 24 24" fill="none" xmlns="http://www.w3.org/2000/svg">
<path d="M12.3826 6.72918C12.3903 5.66745 12.6031 4.61644 13.0099 3.63001C12.8112 3.63001 12.6126 3.63001 12.4035 3.63001C10.8016 3.62811 9.22958 4.04828 7.85674 4.84525C6.48389 5.64223 5.36229 6.7858 4.61276 8.15276C3.86323 9.51971 3.51419 11.0582 3.60325 12.6026C3.6923 14.1469 4.21608 15.6385 5.11815 16.9167C6.02021 18.1948 7.26637 19.2111 8.72236 19.856C10.1783 20.5008 11.789 20.7499 13.3807 20.5763C14.9725 20.4027 16.485 19.813 17.7553 18.8707C19.0256 17.9285 20.0056 16.6694 20.5896 15.2292C18.3588 15.0854 16.2685 14.1265 14.7439 12.5475C13.2193 10.9685 12.3749 8.88797 12.3826 6.72918V6.72918Z" stroke="white" stroke-width="1.2" stroke-linecap="round" stroke-linejoin="round"/>
</svg>
