<svg width="30" height="30" viewBox="0 0 30 30" fill="none" xmlns="http://www.w3.org/2000/svg">
<path d="M12.4004 3C7.78333 3 4 6.77253 4 11.3764C4 13.1603 4.56976 14.8178 5.53431 16.1807L11.3751 26.2784C12.1933 27.3471 12.7369 27.1443 13.4171 26.2222L15.8715 22.0451C14.8793 21.5553 14.0143 20.8417 13.3448 19.9607C12.4293 18.7616 11.9168 17.3035 11.8808 15.7953C9.64476 15.5426 7.93597 13.6799 7.93597 11.3764C7.93597 8.89724 9.91428 6.92493 12.4004 6.92493C14.0171 6.92493 15.4143 7.76181 16.1967 9.0266C17.4874 8.46618 18.9145 8.29783 20.3002 8.54252C19.1278 5.32054 16.0215 3 12.4004 3Z" fill="white"/>
<path d="M19.8709 9.59872C18.3297 9.38992 16.7089 9.7672 15.3782 10.7807C12.7166 12.8073 12.1989 16.6285 14.2257 19.2901C16.1229 21.7813 19.5872 22.382 22.2056 20.787L22.7055 21.4436C22.6569 21.5568 22.634 21.669 22.6384 21.7723C22.6428 21.8757 22.6744 21.9677 22.731 22.0422L26.3598 26.8073C26.4635 26.9435 26.6445 27.0121 26.8628 26.9979C27.0812 26.9838 27.3191 26.8881 27.5242 26.732C27.6258 26.6546 27.7163 26.5647 27.7906 26.4675C27.8648 26.3702 27.9213 26.2674 27.9568 26.165C27.9923 26.0626 28.0062 25.9625 27.9976 25.8706C27.989 25.7787 27.9582 25.6966 27.9068 25.6292L24.278 20.864C24.2213 20.7896 24.1409 20.7347 24.0425 20.703C23.944 20.6713 23.8298 20.6636 23.7078 20.6804L23.2076 20.0235C25.442 17.9235 25.7845 14.4244 23.8875 11.9332C22.874 10.6022 21.4122 9.80752 19.8709 9.59872V9.59872ZM19.6909 10.9276C20.306 11.0106 20.8985 11.2144 21.4345 11.5273C21.9705 11.8402 22.4393 12.2559 22.814 12.7506C23.191 13.2435 23.467 13.8061 23.626 14.4059C23.7851 15.0058 23.8241 15.6311 23.7408 16.2461C23.6575 16.861 23.4536 17.4535 23.1407 17.9894C22.8278 18.5253 22.4122 18.9942 21.9176 19.3691C21.4247 19.746 20.8622 20.022 20.2624 20.181C19.6626 20.34 19.0372 20.379 18.4223 20.2957C17.8074 20.2124 17.215 20.0085 16.6791 19.6956C16.1431 19.3828 15.6743 18.9672 15.2994 18.4727C14.9224 17.9798 14.6465 17.4173 14.4875 16.8175C14.3284 16.2176 14.2894 15.5923 14.3727 14.9774C14.4559 14.3625 14.6598 13.77 14.9727 13.2341C15.2855 12.6982 15.7011 12.2293 16.1956 11.8545C16.6883 11.4772 17.2508 11.2011 17.8507 11.042C18.4506 10.8829 19.076 10.8441 19.6909 10.9276V10.9276Z" fill="white"/>
</svg>
