<svg width="24" height="24" viewBox="0 0 24 24" fill="none" xmlns="http://www.w3.org/2000/svg">
<path d="M14.8892 8.82407C14.5616 8.82532 14.2396 8.7415 13.9557 8.58112C13.6718 8.42074 13.4362 8.18951 13.2728 7.91089C13.1094 7.63228 13.024 7.31619 13.0253 6.99471C13.0265 6.67323 13.1144 6.35781 13.28 6.08044V6.08044L14.6623 3.73164C14.6843 3.69146 14.7171 3.65789 14.7571 3.6345C14.797 3.61111 14.8427 3.59875 14.8892 3.59875C14.9357 3.59875 14.9814 3.61111 15.0213 3.6345C15.0613 3.65789 15.094 3.69146 15.1161 3.73164L16.4983 6.08044C16.6639 6.35781 16.7518 6.67323 16.7531 6.99471C16.7544 7.31619 16.6689 7.63228 16.5055 7.91089C16.3421 8.18951 16.1065 8.42074 15.8227 8.58112C15.5388 8.7415 15.2167 8.82532 14.8892 8.82407V8.82407Z" stroke="white" stroke-width="1.21" stroke-linecap="round" stroke-linejoin="round"/>
<path d="M15.7041 20.5988C15.1936 20.5938 14.6934 20.4576 14.2533 20.2036C13.8132 19.9497 13.4487 19.5869 13.1961 19.1515C12.9435 18.7161 12.8116 18.2233 12.8137 17.7222C12.8157 17.2212 12.9516 16.7294 13.2078 16.296V16.296L15.343 12.6108C15.3787 12.5475 15.431 12.4948 15.4945 12.458C15.558 12.4213 15.6304 12.4019 15.7041 12.4019C15.7778 12.4019 15.8501 12.4213 15.9136 12.458C15.9771 12.4948 16.0294 12.5475 16.0651 12.6108L18.2313 16.296C18.4887 16.7316 18.6247 17.2262 18.6254 17.7298C18.626 18.2334 18.4915 18.7283 18.2352 19.1646C17.979 19.6009 17.6101 19.9632 17.1657 20.2149C16.7213 20.4667 16.2172 20.5991 15.7041 20.5988V20.5988Z" stroke="white" stroke-width="1.21" stroke-linecap="round" stroke-linejoin="round"/>
<path d="M8.94769 15.5165C8.54124 15.5149 8.14227 15.4091 7.79034 15.2096C7.43841 15.01 7.14575 14.7236 6.94141 14.3787C6.73707 14.0339 6.62813 13.6426 6.62542 13.2437C6.6227 12.8448 6.7263 12.4521 6.92593 12.1046V12.1046L8.65887 9.13826C8.68741 9.08762 8.72925 9.04541 8.78005 9.01602C8.83084 8.98663 8.88873 8.97113 8.94769 8.97113C9.00665 8.97113 9.06454 8.98663 9.11533 9.01602C9.16612 9.04541 9.20797 9.08762 9.23651 9.13826L10.9694 12.1046C11.176 12.4556 11.2839 12.8542 11.282 13.2596C11.2801 13.665 11.1685 14.0626 10.9586 14.4117C10.7488 14.7608 10.4482 15.049 10.0876 15.2466C9.72699 15.4443 9.31937 15.5444 8.90643 15.5367L8.94769 15.5165Z" stroke="white" stroke-width="1.21" stroke-linecap="round" stroke-linejoin="round"/>
</svg>
