<svg width="24" height="24" viewBox="0 0 24 24" fill="none" xmlns="http://www.w3.org/2000/svg">
<path d="M10.8772 3.05724C9.33718 2.84194 7.71774 3.23096 6.388 4.27603C3.7285 6.36566 3.21123 10.3059 5.23643 13.0503C7.13213 15.6191 10.5938 16.2385 13.2101 14.5938L13.7096 15.2709C13.661 15.3876 13.6381 15.5032 13.6425 15.6098C13.6469 15.7164 13.6785 15.8113 13.7351 15.8881L17.361 20.8016C17.4646 20.942 17.6455 21.0127 17.8637 20.9981C18.0819 20.9836 18.3196 20.8849 18.5245 20.7239C18.6261 20.6441 18.7165 20.5514 18.7907 20.4511C18.8648 20.3508 18.9213 20.2448 18.9568 20.1392C18.9923 20.0336 19.0061 19.9305 18.9975 19.8357C18.989 19.7409 18.9581 19.6563 18.9068 19.5867L15.2809 14.6732C15.2242 14.5966 15.1439 14.5399 15.0455 14.5072C14.9472 14.4745 14.833 14.4666 14.7111 14.4839L14.2113 13.8066C16.444 11.6412 16.7862 8.03312 14.8907 5.46438C13.878 4.09191 12.4173 3.27254 10.8772 3.05724V3.05724ZM10.6974 4.42748C11.3119 4.51309 11.904 4.72325 12.4396 5.04585C12.9751 5.36846 13.4436 5.79715 13.818 6.30726C14.1948 6.81552 14.4705 7.39556 14.6294 8.01408C14.7883 8.6326 14.8273 9.27742 14.7441 9.91152C14.6609 10.5456 14.4571 11.1565 14.1445 11.7091C13.8318 12.2618 13.4165 12.7452 12.9223 13.1317C12.4298 13.5205 11.8678 13.805 11.2684 13.969C10.6691 14.1329 10.0442 14.1731 9.42977 14.0872C8.81532 14.0014 8.22336 13.7911 7.68787 13.4685C7.15238 13.1459 6.68391 12.7174 6.30934 12.2074C5.93263 11.6992 5.65691 11.1192 5.49799 10.5007C5.33908 9.88222 5.3001 9.23744 5.3833 8.60337C5.46651 7.96929 5.67024 7.35842 5.98283 6.80582C6.29541 6.25321 6.71067 5.76976 7.20479 5.38321C7.69716 4.99419 8.25921 4.70948 8.85861 4.54546C9.458 4.38143 10.0829 4.34134 10.6974 4.42748V4.42748Z" fill="white"/>
</svg>
