<svg width="24" height="24" viewBox="0 0 24 24" fill="none" xmlns="http://www.w3.org/2000/svg">
<path d="M12.5731 4.71185V11.908" stroke="white" stroke-width="1.18" stroke-linecap="round" stroke-linejoin="round"/>
<path d="M14.6291 5.61139L12.5731 7.66311L10.507 5.61139" stroke="white" stroke-width="1.18" stroke-linecap="round" stroke-linejoin="round"/>
<path d="M13.7131 3.58997L12.5731 4.73206L11.423 3.58997" stroke="white" stroke-width="1.18" stroke-linecap="round" stroke-linejoin="round"/>
<path d="M6.15076 8.42114L12.4205 12.0192" stroke="white" stroke-width="1.18" stroke-linecap="round" stroke-linejoin="round"/>
<path d="M7.96247 7.09711L8.71565 9.89675L5.90649 10.6447" stroke="white" stroke-width="1.18" stroke-linecap="round" stroke-linejoin="round"/>
<path d="M5.74363 6.87476L6.16094 8.43124L4.59351 8.84562" stroke="white" stroke-width="1.18" stroke-linecap="round" stroke-linejoin="round"/>
<path d="M6.17114 15.7993L12.451 12.2012" stroke="white" stroke-width="1.18" stroke-linecap="round" stroke-linejoin="round"/>
<path d="M5.92685 13.5757L8.74619 14.3237L7.98283 17.1233" stroke="white" stroke-width="1.18" stroke-linecap="round" stroke-linejoin="round"/>
<path d="M4.61353 15.3748L6.19113 15.7891L5.77383 17.3456" stroke="white" stroke-width="1.18" stroke-linecap="round" stroke-linejoin="round"/>
<path d="M12.624 19.4681V12.2719" stroke="white" stroke-width="1.18" stroke-linecap="round" stroke-linejoin="round"/>
<path d="M10.5579 18.5686L12.6138 16.5168L14.68 18.5686" stroke="white" stroke-width="1.18" stroke-linecap="round" stroke-linejoin="round"/>
<path d="M11.4739 20.59L12.6138 19.4479L13.7741 20.59" stroke="white" stroke-width="1.18" stroke-linecap="round" stroke-linejoin="round"/>
<path d="M19.0363 15.7588L12.7665 12.1607" stroke="white" stroke-width="1.18" stroke-linecap="round" stroke-linejoin="round"/>
<path d="M17.2246 17.0828L16.4714 14.2832L19.2907 13.5353" stroke="white" stroke-width="1.18" stroke-linecap="round" stroke-linejoin="round"/>
<path d="M19.4434 17.3052L19.0261 15.7487L20.5935 15.3343" stroke="white" stroke-width="1.18" stroke-linecap="round" stroke-linejoin="round"/>
<path d="M19.0159 8.38068L12.736 11.9788" stroke="white" stroke-width="1.18" stroke-linecap="round" stroke-linejoin="round"/>
<path d="M19.2602 10.6042L16.4409 9.85628L17.2042 7.05664" stroke="white" stroke-width="1.18" stroke-linecap="round" stroke-linejoin="round"/>
<path d="M20.5732 8.80516L18.9955 8.39077L19.423 6.83429" stroke="white" stroke-width="1.18" stroke-linecap="round" stroke-linejoin="round"/>
</svg>
