<svg width="24" height="24" viewBox="0 0 24 24" fill="none" xmlns="http://www.w3.org/2000/svg">
<path fill-rule="evenodd" clip-rule="evenodd" d="M15.4132 16.5957C15.4132 15.705 15.0536 14.8508 14.4135 14.221C13.7734 13.5913 12.9052 13.2374 12 13.2374C11.0948 13.2374 10.2266 13.5913 9.58647 14.221C8.94636 14.8508 8.58676 15.705 8.58676 16.5957C8.58676 16.819 8.40276 17 8.1758 17C7.94883 17 7.76484 16.819 7.76484 16.5957C7.76484 15.4905 8.21104 14.4307 9.00529 13.6492C9.79953 12.8678 10.8768 12.4288 12 12.4288C13.1232 12.4288 14.2005 12.8678 14.9947 13.6492C15.789 14.4307 16.2352 15.4905 16.2352 16.5957C16.2352 16.819 16.0512 17 15.8242 17C15.5972 17 15.4132 16.819 15.4132 16.5957Z" fill="white"/>
<path fill-rule="evenodd" clip-rule="evenodd" d="M22 16.5956C22 16.819 21.816 17 21.589 17H19.3288C19.1018 17 18.9178 16.819 18.9178 16.5956C18.9178 16.3723 19.1018 16.1913 19.3288 16.1913H21.589C21.816 16.1913 22 16.3723 22 16.5956Z" fill="white"/>
<path fill-rule="evenodd" clip-rule="evenodd" d="M19.0714 9.63814C19.2319 9.79605 19.2319 10.0521 19.0714 10.21L17.4732 11.7824C17.3127 11.9403 17.0525 11.9403 16.8921 11.7824C16.7316 11.6245 16.7316 11.3685 16.8921 11.2106L18.4902 9.63814C18.6507 9.48024 18.9109 9.48024 19.0714 9.63814Z" fill="white"/>
<path fill-rule="evenodd" clip-rule="evenodd" d="M7.10793 11.7824C6.94744 11.9403 6.68724 11.9403 6.52675 11.7824L4.92858 10.21C4.76809 10.0521 4.76809 9.79605 4.92858 9.63814C5.08907 9.48024 5.34927 9.48024 5.50976 9.63814L7.10793 11.2106C7.26842 11.3685 7.26842 11.6245 7.10793 11.7824Z" fill="white"/>
<path fill-rule="evenodd" clip-rule="evenodd" d="M5.08219 16.5956C5.08219 16.819 4.8982 17 4.67123 17H2.41096C2.18399 17 2 16.819 2 16.5956C2 16.3723 2.18399 16.1913 2.41096 16.1913H4.67123C4.8982 16.1913 5.08219 16.3723 5.08219 16.5956Z" fill="white"/>
<path fill-rule="evenodd" clip-rule="evenodd" d="M11.3806 5.22771V9.7534C11.3806 9.95199 11.5443 10.113 11.7461 10.113C11.948 10.113 12.1116 9.95199 12.1116 9.7534L12.1116 5.22771L13.9242 7.0111C14.0669 7.15153 14.2983 7.15153 14.4411 7.0111C14.5838 6.87068 14.5838 6.643 14.4411 6.50257L12.0049 4.10564C11.9698 4.07117 11.9291 4.04483 11.886 4.02728C11.8429 4.0097 11.7957 4 11.7461 4C11.6966 4 11.6493 4.0097 11.6062 4.02728C11.5631 4.04483 11.5227 4.07084 11.4877 4.10532L9.05115 6.50257C8.90842 6.643 8.90842 6.87068 9.05115 7.0111C9.19388 7.15153 9.42529 7.15153 9.56802 7.0111L11.3806 5.22771Z" fill="white"/>
</svg>
