<svg width="24" height="24" viewBox="0 0 24 24" fill="none" xmlns="http://www.w3.org/2000/svg">
<path fill-rule="evenodd" clip-rule="evenodd" d="M8.58676 7.40433C8.58676 8.29499 8.94636 9.14917 9.58647 9.77895C10.2266 10.4087 11.0948 10.7626 12 10.7626C12.9052 10.7626 13.7734 10.4087 14.4135 9.77895C15.0536 9.14916 15.4132 8.29499 15.4132 7.40434C15.4132 7.18103 15.5972 7 15.8242 7C16.0512 7 16.2352 7.18103 16.2352 7.40434C16.2352 8.50946 15.789 9.56932 14.9947 10.3508C14.2005 11.1322 13.1232 11.5712 12 11.5712C10.8768 11.5712 9.79954 11.1322 9.00529 10.3508C8.21104 9.56932 7.76484 8.50946 7.76484 7.40433C7.76484 7.18103 7.94883 7 8.1758 7C8.40277 7 8.58676 7.18103 8.58676 7.40433Z" fill="white"/>
<path fill-rule="evenodd" clip-rule="evenodd" d="M2 7.40436C2 7.18105 2.18399 7.00002 2.41096 7.00002L4.67123 7.00002C4.8982 7.00002 5.08219 7.18105 5.08219 7.40436C5.08219 7.62766 4.8982 7.80869 4.67123 7.80869L2.41096 7.80869C2.18399 7.80869 2 7.62766 2 7.40436Z" fill="white"/>
<path fill-rule="evenodd" clip-rule="evenodd" d="M4.92859 14.3619C4.7681 14.204 4.7681 13.9479 4.92859 13.79L6.52676 12.2176C6.68725 12.0597 6.94746 12.0597 7.10795 12.2176C7.26843 12.3755 7.26844 12.6315 7.10795 12.7894L5.50977 14.3619C5.34928 14.5198 5.08908 14.5198 4.92859 14.3619Z" fill="white"/>
<path fill-rule="evenodd" clip-rule="evenodd" d="M16.8921 12.2176C17.0526 12.0597 17.3128 12.0597 17.4732 12.2176L19.0714 13.79C19.2319 13.9479 19.2319 14.204 19.0714 14.3619C18.9109 14.5198 18.6507 14.5198 18.4902 14.3619L16.8921 12.7894C16.7316 12.6315 16.7316 12.3755 16.8921 12.2176Z" fill="white"/>
<path fill-rule="evenodd" clip-rule="evenodd" d="M18.9178 7.40436C18.9178 7.18105 19.1018 7.00002 19.3288 7.00002L21.589 7.00002C21.816 7.00002 22 7.18105 22 7.40436C22 7.62766 21.816 7.80869 21.589 7.80869L19.3288 7.80869C19.1018 7.80869 18.9178 7.62766 18.9178 7.40436Z" fill="white"/>
<path fill-rule="evenodd" clip-rule="evenodd" d="M12.6194 18.7723L12.6194 14.2466C12.6194 14.048 12.4557 13.887 12.2539 13.887C12.052 13.887 11.8884 14.048 11.8884 14.2466L11.8884 18.7723L10.0758 16.9889C9.93306 16.8485 9.70165 16.8485 9.55892 16.9889C9.41619 17.1293 9.41619 17.357 9.55892 17.4974L11.9951 19.8944C12.0302 19.9288 12.0709 19.9552 12.114 19.9727C12.1571 19.9903 12.2043 20 12.2539 20C12.3034 20 12.3507 19.9903 12.3938 19.9727C12.4369 19.9552 12.4773 19.9292 12.5123 19.8947L14.9488 17.4974C15.0916 17.357 15.0916 17.1293 14.9488 16.9889C14.8061 16.8485 14.5747 16.8485 14.432 16.9889L12.6194 18.7723Z" fill="white"/>
</svg>
