<svg width="24" height="24" viewBox="0 0 24 24" fill="none" xmlns="http://www.w3.org/2000/svg">
<path d="M12.1213 6.70446C12.1346 5.66224 12.3374 4.63112 12.7199 3.6615C12.517 3.6615 12.3242 3.6615 12.1213 3.6615C10.8147 3.66042 9.52546 3.96049 8.35366 4.53841C7.18185 5.11632 6.15905 5.95653 5.36467 6.99377C4.5703 8.03102 4.02574 9.23738 3.77329 10.5192C3.52084 11.801 3.56728 13.1237 3.90902 14.3847C4.25076 15.6456 4.87859 16.8108 5.74376 17.7898C6.60893 18.7688 7.68815 19.5352 8.89761 20.0295C10.1071 20.5238 11.4142 20.7328 12.7175 20.6401C14.0208 20.5474 15.2852 20.1556 16.4125 19.495" stroke="white" stroke-width="1.2" stroke-linecap="round" stroke-linejoin="round"/>
<path d="M15.6523 7.32321C15.7423 6.71155 16.0561 6.15503 16.533 5.76152C17.0099 5.36802 17.6159 5.16553 18.2336 5.19332C18.8513 5.22111 19.4367 5.47718 19.8763 5.91192C20.3159 6.34666 20.5785 6.9291 20.6131 7.54636C20.5945 8.18579 20.3239 8.79196 19.8602 9.23275C19.3966 9.67355 18.7774 9.91324 18.1378 9.89958H14.0799" stroke="white" stroke-width="1.23" stroke-linecap="round" stroke-linejoin="round"/>
<path d="M14.2422 14.6263C14.2855 15.0817 14.4599 15.5148 14.7445 15.873C15.0291 16.2313 15.4115 16.4992 15.8454 16.6444C16.2793 16.7895 16.746 16.8057 17.1888 16.6908C17.6317 16.5759 18.0317 16.335 18.3404 15.9973C18.649 15.6596 18.8529 15.2396 18.9275 14.7882C19.0021 14.3369 18.944 13.8736 18.7604 13.4546C18.5767 13.0356 18.2754 12.6789 17.893 12.4277C17.5106 12.1766 17.0635 12.0418 16.606 12.0398H12.7206" stroke="white" stroke-width="1.2" stroke-linecap="round" stroke-linejoin="round"/>
</svg>
