<svg width="24" height="24" viewBox="0 0 24 24" fill="none" xmlns="http://www.w3.org/2000/svg">
<path d="M12.581 6.72778C12.589 5.66605 12.8061 4.61503 13.2212 3.62861C13.0185 3.62861 12.8158 3.62861 12.6024 3.62861C10.9676 3.6267 9.3633 4.04687 7.96226 4.84385C6.56122 5.64082 5.41658 6.78439 4.65166 8.15135C3.88673 9.51831 3.53052 11.0568 3.62141 12.6012C3.7123 14.1455 4.24683 15.6371 5.16742 16.9153C6.08802 18.1934 7.35977 19.2097 8.84566 19.8546C10.3316 20.4994 11.9753 20.7485 13.5997 20.5749C15.2241 20.4013 16.7677 19.8116 18.0641 18.8693C19.3605 17.9271 20.3606 16.668 20.9567 15.2278C18.6801 15.084 16.5468 14.1251 14.9909 12.5461C13.435 10.9671 12.5733 8.88657 12.581 6.72778V6.72778Z" stroke="white" stroke-width="1.2" stroke-linecap="round" stroke-linejoin="round"/>
<path d="M18.3853 5.56684C18.0464 5.58198 17.7213 5.69864 17.457 5.89997C17.3368 5.98966 17.2383 6.1028 17.1683 6.23171C17.0984 6.36061 17.0586 6.50225 17.0516 6.647C17.0407 6.50305 16.9992 6.36266 16.9296 6.23428C16.8599 6.1059 16.7635 5.99219 16.6462 5.89997C16.3808 5.70044 16.0564 5.58401 15.7179 5.56684C16.0568 5.56043 16.3836 5.44669 16.6462 5.2438C16.763 5.1512 16.8591 5.03739 16.9287 4.90909C16.9984 4.78078 17.0401 4.64059 17.0516 4.49677C17.0586 4.64152 17.0984 4.78316 17.1683 4.91206C17.2383 5.04096 17.3368 5.15411 17.457 5.2438C17.7187 5.44809 18.0461 5.56201 18.3853 5.56684Z" fill="white"/>
<path d="M21.6075 10.6043C21.2686 10.6194 20.9435 10.7361 20.6793 10.9374C20.559 11.0271 20.4605 11.1402 20.3905 11.2691C20.3206 11.398 20.2808 11.5397 20.2738 11.6844C20.263 11.5405 20.2215 11.4001 20.1518 11.2717C20.0821 11.1433 19.9857 11.0296 19.8684 10.9374C19.6148 10.7455 19.3064 10.6295 18.9828 10.6043C19.3217 10.5978 19.6485 10.4841 19.911 10.2812C20.0279 10.1886 20.124 10.0748 20.1936 9.9465C20.2633 9.8182 20.305 9.678 20.3165 9.53418C20.3234 9.67893 20.3633 9.82057 20.4332 9.94948C20.5032 10.0784 20.6016 10.1915 20.7219 10.2812C20.9722 10.4771 21.283 10.5905 21.6075 10.6043Z" fill="white"/>
<path d="M17.6064 10.0591C17.337 10.0648 17.076 10.1494 16.8596 10.3014C16.7662 10.3682 16.6893 10.4533 16.6341 10.5509C16.5788 10.6485 16.5466 10.7562 16.5395 10.8667C16.5266 10.7565 16.4908 10.6497 16.434 10.5527C16.3772 10.4556 16.3006 10.3702 16.2087 10.3014C15.9955 10.1508 15.7384 10.0662 15.4725 10.0591C15.7384 10.0521 15.9955 9.96744 16.2087 9.81685C16.3006 9.74802 16.3772 9.66261 16.434 9.56557C16.4908 9.46852 16.5266 9.36178 16.5395 9.25153C16.5466 9.36203 16.5788 9.46977 16.6341 9.56735C16.6893 9.66493 16.7662 9.75005 16.8596 9.81685C17.076 9.96882 17.337 10.0535 17.6064 10.0591Z" fill="white"/>
</svg>
