<svg width="24" height="24" viewBox="0 0 24 24" fill="none" xmlns="http://www.w3.org/2000/svg">
<path d="M17.9531 16.1263C18.6713 15.9667 19.3166 15.5846 19.7913 15.0379C20.2659 14.4911 20.5443 13.8093 20.5842 13.0955C20.6241 12.3817 20.4235 11.6747 20.0126 11.0814C19.6017 10.488 19.0028 10.0405 18.3066 9.80641C17.4247 9.51295 16.4591 9.56929 15.6198 9.96318" stroke="white" stroke-width="1.2" stroke-linecap="round" stroke-linejoin="round"/>
<path d="M5.44852 15.5972C4.87169 15.2731 4.395 14.8049 4.06812 14.2414C3.74124 13.6779 3.57614 13.0396 3.59001 12.3932C3.58868 11.8918 3.68933 11.3951 3.88619 10.9315C4.08306 10.468 4.37226 10.0466 4.73725 9.69167C5.10224 9.3367 5.53583 9.05507 6.01319 8.86291C6.49056 8.67075 7.00231 8.57184 7.51914 8.57184H8.04437C8.27033 7.87325 8.67799 7.24291 9.22806 6.74157C9.77813 6.24023 10.4521 5.8848 11.1849 5.70954C11.9177 5.53428 12.6847 5.5451 13.412 5.74096C14.1392 5.93682 14.8022 6.31111 15.337 6.82775C15.5829 7.07117 15.7998 7.34069 15.9834 7.63121" stroke="white" stroke-width="1.2" stroke-linecap="round" stroke-linejoin="round"/>
<path d="M11.7108 12.0012V14.9799" stroke="white" stroke-width="0.6" stroke-linecap="round" stroke-linejoin="round"/>
<path d="M12.5896 12.3735L11.7109 13.2162L10.8422 12.3735" stroke="white" stroke-width="0.6" stroke-linecap="round" stroke-linejoin="round"/>
<path d="M12.2058 11.5309L11.7109 12.011L11.226 11.5309" stroke="white" stroke-width="0.6" stroke-linecap="round" stroke-linejoin="round"/>
<path d="M8.99384 13.5395L11.6503 15.0288" stroke="white" stroke-width="0.6" stroke-linecap="round" stroke-linejoin="round"/>
<path d="M9.76147 12.9917L10.0847 14.1479L8.88272 14.4614" stroke="white" stroke-width="0.6" stroke-linecap="round" stroke-linejoin="round"/>
<path d="M8.82211 12.8928L8.99382 13.5395L8.32718 13.7159" stroke="white" stroke-width="0.6" stroke-linecap="round" stroke-linejoin="round"/>
<path d="M9.00394 16.5966L11.6604 15.1072" stroke="white" stroke-width="0.6" stroke-linecap="round" stroke-linejoin="round"/>
<path d="M8.89282 15.6755L10.0948 15.9891L9.77157 17.1453" stroke="white" stroke-width="0.6" stroke-linecap="round" stroke-linejoin="round"/>
<path d="M8.33719 16.4202L9.00383 16.5966L8.83212 17.2433" stroke="white" stroke-width="0.6" stroke-linecap="round" stroke-linejoin="round"/>
<path d="M11.7412 18.1153V15.1367" stroke="white" stroke-width="0.6" stroke-linecap="round" stroke-linejoin="round"/>
<path d="M10.8625 17.743L11.7311 16.8906L12.6099 17.743" stroke="white" stroke-width="0.6" stroke-linecap="round" stroke-linejoin="round"/>
<path d="M11.2463 18.5856L11.7311 18.1055L12.226 18.5856" stroke="white" stroke-width="0.6" stroke-linecap="round" stroke-linejoin="round"/>
<path d="M14.4582 16.577L11.8018 15.0876" stroke="white" stroke-width="0.6" stroke-linecap="round" stroke-linejoin="round"/>
<path d="M13.6906 17.1257L13.3674 15.9695L14.5693 15.6559" stroke="white" stroke-width="0.6" stroke-linecap="round" stroke-linejoin="round"/>
<path d="M14.63 17.2237L14.4583 16.577L15.1249 16.4006" stroke="white" stroke-width="0.6" stroke-linecap="round" stroke-linejoin="round"/>
<path d="M14.4481 13.5199L11.7917 15.0092" stroke="white" stroke-width="0.6" stroke-linecap="round" stroke-linejoin="round"/>
<path d="M14.5592 14.4418L13.3573 14.1283L13.6805 12.9721" stroke="white" stroke-width="0.6" stroke-linecap="round" stroke-linejoin="round"/>
<path d="M15.1148 13.6963L14.4482 13.5199L14.6199 12.8732" stroke="white" stroke-width="0.6" stroke-linecap="round" stroke-linejoin="round"/>
</svg>
