<svg width="24" height="24" viewBox="0 0 24 24" fill="none" xmlns="http://www.w3.org/2000/svg">
<path d="M17.9311 17.5872C18.6484 17.4192 19.2923 17.0194 19.7656 16.4481C20.2389 15.8768 20.5159 15.1651 20.5548 14.4203C20.5937 13.6755 20.3923 12.9382 19.9811 12.3195C19.5699 11.7008 18.9712 11.2344 18.2754 10.9907C17.6668 10.7941 17.0187 10.7588 16.3928 10.8881C15.767 11.0174 15.1843 11.307 14.7004 11.7294C13.8291 12.5809 13.0884 13.5594 12.5027 14.6326C11.0949 16.8486 8.14782 18.4592 5.58555 17.105C4.96623 16.7846 4.44809 16.2945 4.09003 15.6906C3.73196 15.0867 3.54834 14.3932 3.56003 13.6888C3.56002 13.1635 3.66266 12.6434 3.86203 12.1584C4.0614 11.6735 4.35357 11.2333 4.72168 10.8633C5.08979 10.4933 5.52657 10.2007 6.00683 10.0025C6.48709 9.80429 7.00133 9.70433 7.51991 9.70839H8.05667C8.28178 8.98069 8.68845 8.32414 9.23735 7.80224C9.78626 7.28033 10.4588 6.91073 11.19 6.72918C11.9212 6.54762 12.6862 6.56026 13.4112 6.76586C14.1361 6.97146 14.7965 7.36307 15.3283 7.90283C15.577 8.15197 15.7947 8.43104 15.9764 8.73379" stroke="white" stroke-width="1.2" stroke-linecap="round" stroke-linejoin="round"/>
</svg>
