<svg width="24" height="24" viewBox="0 0 24 24" fill="none" xmlns="http://www.w3.org/2000/svg">
<path d="M13.4286 13.1146C13.454 12.8596 13.554 12.6175 13.7163 12.4174C13.8787 12.2172 14.0966 12.0678 14.3434 11.9871C14.5903 11.9064 14.8557 11.898 15.1074 11.9628C15.3591 12.0275 15.5862 12.1628 15.7614 12.3522C15.9366 12.5415 16.0523 12.7768 16.0944 13.0296C16.1365 13.2824 16.1033 13.5417 15.9987 13.7763C15.8942 14.0108 15.7228 14.2105 15.5053 14.3511C15.2879 14.4917 15.0337 14.5671 14.7736 14.5684H6.68335" stroke="white" stroke-width="1.2" stroke-linecap="round" stroke-linejoin="round"/>
<path d="M9.32349 11.6707C9.35843 11.3432 9.51512 11.04 9.76341 10.8195C10.0117 10.5989 10.3341 10.4765 10.6685 10.4758C11.0252 10.4758 11.3673 10.6154 11.6196 10.8637C11.8718 11.1121 12.0135 11.4489 12.0135 11.8002C12.0135 12.1514 11.8718 12.4883 11.6196 12.7366C11.3673 12.985 11.0252 13.1245 10.6685 13.1245H6.62338" stroke="white" stroke-width="1.2" stroke-linecap="round" stroke-linejoin="round"/>
<path d="M13.4495 8.44449C13.9564 8.09325 14.5843 7.95467 15.195 8.05925C15.8056 8.16382 16.3491 8.50298 16.7058 9.00211C17.0626 9.50124 17.2033 10.1195 17.0971 10.7208C16.9909 11.3221 16.6464 11.8572 16.1395 12.2084" stroke="white" stroke-width="1.2" stroke-linecap="round" stroke-linejoin="round"/>
<path d="M14.7844 5.93521V4.59094" stroke="white" stroke-width="1.2" stroke-linecap="round" stroke-linejoin="round"/>
<path d="M17.9295 13.4133L18.9008 14.3692" stroke="white" stroke-width="1.2" stroke-linecap="round" stroke-linejoin="round"/>
<path d="M19.234 10.3165H20.6" stroke="white" stroke-width="1.2" stroke-linecap="round" stroke-linejoin="round"/>
<path d="M17.9295 7.21971L18.9008 6.26379" stroke="white" stroke-width="1.2" stroke-linecap="round" stroke-linejoin="round"/>
<path d="M13.7633 8.97223C13.6105 8.7339 13.4307 8.51342 13.2274 8.31503C12.7946 7.88374 12.2561 7.56965 11.664 7.40313C11.0719 7.23661 10.4462 7.22328 9.84737 7.36444C9.24852 7.50559 8.69677 7.79646 8.24545 8.20893C7.79412 8.6214 7.45847 9.14153 7.27094 9.71904H6.81587C5.96297 9.71904 5.145 10.0527 4.54191 10.6465C3.93882 11.2403 3.60001 12.0457 3.60001 12.8855C3.62209 13.3881 3.77271 13.877 4.03789 14.307C4.30307 14.7369 4.67422 15.094 5.11692 15.345C6.18051 15.8666 7.37462 16.0741 8.55527 15.9425H11.3868C11.6496 15.9374 11.9082 16.0082 12.1305 16.1462C12.3528 16.2842 12.5293 16.4833 12.638 16.7189C12.7466 16.9545 12.7828 17.2163 12.7421 17.472C12.7013 17.7276 12.5854 17.9659 12.4086 18.1574C12.2318 18.3489 12.0019 18.4852 11.7473 18.5495C11.4927 18.6137 11.2246 18.6031 10.976 18.519C10.7275 18.4348 10.5094 18.2808 10.3488 18.076C10.1882 17.8711 10.092 17.6245 10.0722 17.3664" stroke="white" stroke-width="1.2" stroke-linecap="round" stroke-linejoin="round"/>
</svg>
