<svg width="24" height="24" viewBox="0 0 24 24" fill="none" xmlns="http://www.w3.org/2000/svg">
<path d="M10.3814 15.2604C10.761 15.2604 11.0686 14.9472 11.0686 14.5608C11.0686 14.1744 10.761 13.8612 10.3814 13.8612C10.0019 13.8612 9.69418 14.1744 9.69418 14.5608C9.69418 14.9472 10.0019 15.2604 10.3814 15.2604Z" stroke="white" stroke-width="0.6" stroke-linecap="round" stroke-linejoin="round"/>
<path d="M12.9585 17.6472C13.3381 17.6472 13.6458 17.334 13.6458 16.9476C13.6458 16.5613 13.3381 16.248 12.9585 16.248C12.579 16.248 12.2713 16.5613 12.2713 16.9476C12.2713 17.334 12.579 17.6472 12.9585 17.6472Z" stroke="white" stroke-width="0.6" stroke-linecap="round" stroke-linejoin="round"/>
<path d="M17.4761 14.9723C17.6993 14.9723 17.8803 14.7881 17.8803 14.5608C17.8803 14.3335 17.6993 14.1493 17.4761 14.1493C17.2528 14.1493 17.0718 14.3335 17.0718 14.5608C17.0718 14.7881 17.2528 14.9723 17.4761 14.9723Z" fill="white"/>
<path d="M15.192 17.5649C15.4153 17.5649 15.5963 17.3807 15.5963 17.1534C15.5963 16.9261 15.4153 16.7419 15.192 16.7419C14.9688 16.7419 14.7878 16.9261 14.7878 17.1534C14.7878 17.3807 14.9688 17.5649 15.192 17.5649Z" fill="white"/>
<path d="M12.8979 19.6122C13.1212 19.6122 13.3022 19.428 13.3022 19.2007C13.3022 18.9734 13.1212 18.7892 12.8979 18.7892C12.6746 18.7892 12.4937 18.9734 12.4937 19.2007C12.4937 19.428 12.6746 19.6122 12.8979 19.6122Z" fill="white"/>
<path d="M10.3208 17.5649C10.544 17.5649 10.725 17.3807 10.725 17.1534C10.725 16.9261 10.544 16.7419 10.3208 16.7419C10.0975 16.7419 9.91653 16.9261 9.91653 17.1534C9.91653 17.3807 10.0975 17.5649 10.3208 17.5649Z" fill="white"/>
<path d="M12.6149 14.9723C12.8382 14.9723 13.0192 14.7881 13.0192 14.5608C13.0192 14.3335 12.8382 14.1493 12.6149 14.1493C12.3917 14.1493 12.2107 14.3335 12.2107 14.5608C12.2107 14.7881 12.3917 14.9723 12.6149 14.9723Z" fill="white"/>
<path d="M8.03676 14.9723C8.26002 14.9723 8.44101 14.7881 8.44101 14.5608C8.44101 14.3335 8.26002 14.1493 8.03676 14.1493C7.8135 14.1493 7.63251 14.3335 7.63251 14.5608C7.63251 14.7881 7.8135 14.9723 8.03676 14.9723Z" fill="white"/>
<path d="M15.1314 15.2604C15.5109 15.2604 15.8186 14.9472 15.8186 14.5608C15.8186 14.1744 15.5109 13.8612 15.1314 13.8612C14.7518 13.8612 14.4442 14.1744 14.4442 14.5608C14.4442 14.9472 14.7518 15.2604 15.1314 15.2604Z" stroke="white" stroke-width="0.6" stroke-linecap="round" stroke-linejoin="round"/>
<path d="M17.0011 16.6698C17.6572 16.4991 18.2428 16.1199 18.6727 15.5873C19.1026 15.0546 19.3545 14.3962 19.3917 13.7079C19.4289 13.0195 19.2495 12.337 18.8795 11.7596C18.5096 11.1821 17.9684 10.7398 17.3346 10.497C16.8143 10.318 16.2582 10.2755 15.7176 10.3735" stroke="white" stroke-width="1.17" stroke-linecap="round" stroke-linejoin="round"/>
<path d="M8.04688 16.6184C7.15161 16.7899 6.22569 16.6485 5.41924 16.2172C4.85234 15.9069 4.38117 15.4426 4.0582 14.8759C3.73523 14.3091 3.57315 13.6622 3.59 13.0073C3.58867 12.516 3.68258 12.0292 3.86635 11.575C4.05012 11.1207 4.32013 10.7078 4.66092 10.3599C5.00172 10.012 5.40659 9.736 5.85234 9.54768C6.29809 9.35936 6.77597 9.26242 7.25859 9.26242H7.78412C7.99842 8.47764 8.43669 7.77526 9.04341 7.24421C9.65013 6.71317 10.398 6.37736 11.1923 6.27932C11.9867 6.18127 12.7917 6.32539 13.5055 6.69344C14.2193 7.06148 14.8098 7.63689 15.2021 8.34679" stroke="white" stroke-width="1.17" stroke-linecap="round" stroke-linejoin="round"/>
<path d="M18.4968 11.0114C18.969 10.8698 19.403 10.62 19.7656 10.2812C20.1282 9.94233 20.4098 9.52347 20.5888 9.05669C20.0872 9.021 19.6009 8.8656 19.1692 8.60308C18.7375 8.34056 18.3726 7.97828 18.104 7.54555C17.8353 7.11282 17.6705 6.6218 17.6229 6.11221C17.5753 5.60262 17.6461 5.08878 17.8298 4.61225H17.6075C16.8651 4.61153 16.1454 4.87245 15.5706 5.35068C14.9958 5.82892 14.6014 6.49497 14.4543 7.2357" stroke="white" stroke-width="1.17" stroke-linecap="round" stroke-linejoin="round"/>
</svg>
