<svg width="24" height="24" viewBox="0 0 24 24" fill="none" xmlns="http://www.w3.org/2000/svg">
<path d="M13.92 14.5368C13.785 14.5383 13.652 14.5028 13.5348 14.434C13.4176 14.3652 13.3203 14.2657 13.2531 14.1457C13.1859 14.0256 13.1511 13.8893 13.1523 13.7509C13.1535 13.6125 13.1907 13.4769 13.26 13.3581V13.3581L13.83 12.3331C13.8397 12.3161 13.8536 12.302 13.8702 12.2922C13.8869 12.2824 13.9058 12.2772 13.925 12.2772C13.9442 12.2772 13.9631 12.2824 13.9798 12.2922C13.9964 12.302 14.0103 12.3161 14.02 12.3331L14.59 13.3581C14.6565 13.4782 14.6911 13.6141 14.6903 13.7521C14.6895 13.8902 14.6534 14.0256 14.5856 14.1449C14.5178 14.2642 14.4207 14.3632 14.3039 14.432C14.1871 14.5007 14.0547 14.5369 13.92 14.5368Z" stroke="white" stroke-width="0.75" stroke-linecap="round" stroke-linejoin="round"/>
<path d="M14.25 19.6105C14.0424 19.6017 13.8405 19.5382 13.6638 19.4262C13.4871 19.3142 13.3415 19.1575 13.241 18.9711C13.1406 18.7847 13.0886 18.5749 13.0902 18.362C13.0917 18.149 13.1468 17.9401 13.25 17.7553V17.7553L14.15 16.1665C14.1652 16.1411 14.1865 16.1201 14.2119 16.1055C14.2373 16.0909 14.2659 16.0833 14.295 16.0833C14.3241 16.0833 14.3527 16.0909 14.3781 16.1055C14.4035 16.1201 14.4248 16.1411 14.44 16.1665L15.34 17.7553C15.445 17.9438 15.4999 18.1574 15.4992 18.3745C15.4985 18.5916 15.4422 18.8048 15.3359 18.9926C15.2296 19.1804 15.077 19.3363 14.8935 19.4448C14.7099 19.5532 14.5018 19.6104 14.29 19.6105H14.25Z" stroke="white" stroke-width="0.75" stroke-linecap="round" stroke-linejoin="round"/>
<path d="M11.47 17.4273C11.3047 17.4168 11.1445 17.3643 11.0038 17.2746C10.8632 17.1849 10.7465 17.0609 10.6642 16.9135C10.5819 16.7662 10.5366 16.6002 10.5324 16.4304C10.5281 16.2607 10.5651 16.0925 10.64 15.9411V15.9411L11.35 14.6701C11.3624 14.6489 11.38 14.6313 11.4011 14.6191C11.4221 14.6069 11.4458 14.6005 11.47 14.6005C11.4941 14.6005 11.5179 14.6069 11.5389 14.6191C11.56 14.6313 11.5775 14.6489 11.59 14.6701L12.3 15.9411C12.3748 16.0925 12.4118 16.2607 12.4076 16.4304C12.4034 16.6002 12.3581 16.7662 12.2758 16.9135C12.1935 17.0609 12.0768 17.1849 11.9362 17.2746C11.7955 17.3643 11.6353 17.4168 11.47 17.4273V17.4273Z" stroke="white" stroke-width="0.75" stroke-linecap="round" stroke-linejoin="round"/>
<path d="M16.85 16.6278C17.6594 16.4489 18.3671 15.9496 18.8191 15.2384C19.2711 14.5273 19.4307 13.6619 19.2633 12.8308C19.0958 11.9996 18.6148 11.2698 17.925 10.8004C17.2351 10.3309 16.3923 10.1598 15.58 10.3241" stroke="white" stroke-width="1.2" stroke-linecap="round" stroke-linejoin="round"/>
<path d="M7.99998 16.5663C7.11525 16.7403 6.19913 16.603 5.39998 16.1768C4.84166 15.8654 4.37811 15.402 4.06048 14.8377C3.74285 14.2734 3.58349 13.6301 3.59998 12.9789C3.59998 11.9921 3.98242 11.0457 4.66318 10.3479C5.34394 9.65016 6.26724 9.25816 7.22998 9.25816H7.74998C7.94573 8.56813 8.31499 7.94296 8.82075 7.44529C9.32651 6.94763 9.951 6.59495 10.6316 6.42262C11.3123 6.25029 12.0251 6.26434 12.6988 6.46338C13.3725 6.66242 13.9833 7.03945 14.47 7.55669C14.7001 7.79421 14.9015 8.05918 15.07 8.34593" stroke="white" stroke-width="1.2" stroke-linecap="round" stroke-linejoin="round"/>
<path d="M18.33 10.9904C18.7968 10.8518 19.2263 10.6049 19.5852 10.269C19.9441 9.93313 20.2229 9.51712 20.4 9.05317C19.9036 9.01761 19.4224 8.8628 18.9953 8.60125C18.5681 8.3397 18.207 7.97877 17.9412 7.54765C17.6754 7.11653 17.5124 6.62734 17.4653 6.11964C17.4181 5.61194 17.4883 5.10001 17.67 4.62524H17.45C16.7171 4.62689 16.0074 4.88792 15.4407 5.36418C14.874 5.84044 14.4851 6.5027 14.34 7.23895" stroke="white" stroke-width="1.2" stroke-linecap="round" stroke-linejoin="round"/>
</svg>
