<svg width="24" height="24" viewBox="0 0 24 24" fill="none" xmlns="http://www.w3.org/2000/svg">
<path d="M13.4268 9.47538C13.8151 9.19265 14.2813 9.03479 14.7625 9.02301C15.3798 9.02301 15.9717 9.26661 16.4082 9.70021C16.8446 10.1338 17.0898 10.7219 17.0898 11.3351C17.0913 11.71 16.9997 12.0795 16.8232 12.4109C16.6467 12.7422 16.3908 13.0253 16.078 13.2351" stroke="white" stroke-width="1.17" stroke-linecap="round" stroke-linejoin="round"/>
<path d="M14.7625 6.94212V5.58502" stroke="white" stroke-width="1.17" stroke-linecap="round" stroke-linejoin="round"/>
<path d="M17.9095 14.4816L18.8809 15.4466" stroke="white" stroke-width="1.17" stroke-linecap="round" stroke-linejoin="round"/>
<path d="M19.2148 11.3652H20.5808" stroke="white" stroke-width="1.17" stroke-linecap="round" stroke-linejoin="round"/>
<path d="M17.9095 8.23893L18.8809 7.28394" stroke="white" stroke-width="1.17" stroke-linecap="round" stroke-linejoin="round"/>
<path d="M7.04191 17.0651C6.40689 17.1021 5.77372 16.9666 5.21041 16.673C4.71117 16.4138 4.29438 16.0217 4.00667 15.5406C3.71895 15.0595 3.57167 14.5083 3.58128 13.9488C3.58128 13.1009 3.9203 12.2878 4.52375 11.6883C5.1272 11.0888 5.94565 10.752 6.79906 10.752H7.2544C7.43928 10.1686 7.77241 9.64234 8.22165 9.22406C8.67089 8.80578 9.22107 8.5096 9.8191 8.3641C10.4171 8.21861 11.0428 8.2287 11.6358 8.39342C12.2287 8.55813 12.7689 8.87191 13.2042 9.30446C13.4077 9.50474 13.5876 9.72732 13.7405 9.96793" stroke="white" stroke-width="1.17" stroke-linecap="round" stroke-linejoin="round"/>
<path d="M11.3323 16.0598H10.1585C10.1209 16.0601 10.084 16.0494 10.0524 16.0291C10.0209 16.0087 9.99598 15.9796 9.9809 15.9454C9.96582 15.9112 9.96119 15.8733 9.96757 15.8364C9.97396 15.7996 9.99109 15.7654 10.0168 15.7382L12.6578 12.8229C12.6725 12.8011 12.6912 12.7824 12.7131 12.7678C12.735 12.7533 12.7596 12.7431 12.7854 12.738C12.8113 12.7329 12.8379 12.7328 12.8637 12.7379C12.8896 12.743 12.9142 12.7531 12.9361 12.7676C12.958 12.7821 12.9769 12.8008 12.9915 12.8226C13.0062 12.8443 13.0164 12.8687 13.0216 12.8944C13.0267 12.9201 13.0268 12.9465 13.0216 12.9722C13.0165 12.9978 13.0064 13.0223 12.9918 13.0441L12.2126 15.2255" stroke="white" stroke-width="0.75" stroke-linecap="round" stroke-linejoin="round"/>
<path d="M12.2531 15.2858H13.4268C13.4645 15.2855 13.5014 15.2962 13.5329 15.3165C13.5645 15.3369 13.5894 15.366 13.6044 15.4002C13.6195 15.4345 13.6242 15.4723 13.6178 15.5092C13.6114 15.546 13.5943 15.5802 13.5685 15.6075L10.9174 18.5227C10.8876 18.5552 10.8474 18.5765 10.8036 18.5829C10.7599 18.5894 10.7152 18.5807 10.6772 18.5582C10.6391 18.5358 10.61 18.501 10.5948 18.4598C10.5796 18.4185 10.5792 18.3733 10.5936 18.3317L11.3727 16.1503" stroke="white" stroke-width="0.75" stroke-linecap="round" stroke-linejoin="round"/>
</svg>
