<svg width="24" height="24" viewBox="0 0 24 24" fill="none" xmlns="http://www.w3.org/2000/svg">
<path d="M13.3879 16.2045C13.2529 16.2059 13.1199 16.1713 13.0027 16.1042C12.8855 16.0371 12.7883 15.94 12.7211 15.8229C12.6538 15.7058 12.619 15.5728 12.6203 15.4378C12.6215 15.3027 12.6586 15.1705 12.7279 15.0545L13.2979 14.0545C13.3076 14.0379 13.3215 14.0242 13.3382 14.0146C13.3548 14.005 13.3737 14 13.3929 14C13.4122 14 13.4311 14.005 13.4477 14.0146C13.4644 14.0242 13.4783 14.0379 13.4879 14.0545L14.0579 15.0545C14.1244 15.1717 14.159 15.3042 14.1582 15.4389C14.1575 15.5736 14.1214 15.7058 14.0536 15.8222C13.9858 15.9386 13.8886 16.0351 13.7718 16.1022C13.655 16.1693 13.5226 16.2046 13.3879 16.2045Z" stroke="white" stroke-width="0.75" stroke-linecap="round" stroke-linejoin="round"/>
<path d="M13.7179 21.1545C13.5104 21.1459 13.3085 21.084 13.1318 20.9748C12.9551 20.8655 12.8095 20.7126 12.709 20.5307C12.6085 20.3489 12.5566 20.1442 12.5581 19.9365C12.5597 19.7287 12.6147 19.5249 12.7179 19.3445L13.6179 17.7945C13.6331 17.7697 13.6544 17.7492 13.6798 17.735C13.7052 17.7208 13.7338 17.7133 13.7629 17.7133C13.792 17.7133 13.8207 17.7208 13.8461 17.735C13.8714 17.7492 13.8928 17.7697 13.9079 17.7945L14.8079 19.3445C14.913 19.5285 14.9679 19.7368 14.9672 19.9487C14.9665 20.1605 14.9101 20.3685 14.8038 20.5517C14.6975 20.735 14.545 20.8871 14.3614 20.9929C14.1779 21.0987 13.9698 21.1544 13.7579 21.1545H13.7179Z" stroke="white" stroke-width="0.75" stroke-linecap="round" stroke-linejoin="round"/>
<path d="M10.9379 19.0245C10.7726 19.0143 10.6124 18.9631 10.4718 18.8756C10.3311 18.7881 10.2144 18.667 10.1321 18.5233C10.0498 18.3795 10.0045 18.2175 10.0003 18.052C9.9961 17.8864 10.0331 17.7223 10.1079 17.5745L10.8179 16.3345C10.8304 16.3138 10.848 16.2967 10.869 16.2848C10.89 16.2729 10.9138 16.2667 10.9379 16.2667C10.9621 16.2667 10.9859 16.2729 11.0069 16.2848C11.0279 16.2967 11.0455 16.3138 11.0579 16.3345L11.7679 17.5745C11.8428 17.7223 11.8798 17.8864 11.8756 18.052C11.8713 18.2175 11.8261 18.3795 11.7438 18.5233C11.6615 18.667 11.5448 18.7881 11.4041 18.8756C11.2635 18.9631 11.1033 19.0143 10.9379 19.0245Z" stroke="white" stroke-width="0.75" stroke-linecap="round" stroke-linejoin="round"/>
<path d="M13.4256 9.64439C13.8139 9.34901 14.28 9.18408 14.7613 9.17178C15.3785 9.17178 15.9705 9.42628 16.4069 9.87928C16.8434 10.3323 17.0886 10.9467 17.0886 11.5873C17.09 11.979 16.9984 12.365 16.8219 12.7112C16.6454 13.0574 16.3895 13.3532 16.0767 13.5723M14.7613 6.99778V5.57996M17.9082 14.8746L18.8796 15.8828M19.2135 11.6188H20.5796M17.9082 8.35259L18.8796 7.35486M7.04063 17.5737C6.40561 17.6124 5.77244 17.4708 5.20913 17.1641C4.70989 16.8933 4.2931 16.4837 4.00539 15.981C3.71767 15.4784 3.57038 14.9025 3.58 14.318C3.58 13.4322 3.91902 12.5827 4.52247 11.9564C5.12592 11.3301 5.94437 10.9782 6.79778 10.9782H7.25312C7.438 10.3686 7.77113 9.81884 8.22037 9.38185C8.66961 8.94486 9.21979 8.63543 9.81782 8.48342C10.4158 8.33141 11.0415 8.34196 11.6345 8.51404C12.2274 8.68613 12.7676 9.01394 13.203 9.46585C13.4064 9.67509 13.5863 9.90763 13.7393 10.159" stroke="white" stroke-width="1.17" stroke-linecap="round" stroke-linejoin="round"/>
</svg>
