<svg width="24" height="24" viewBox="0 0 24 24" fill="none" xmlns="http://www.w3.org/2000/svg">
<path d="M12.495 20.3987C11.4618 20.3986 10.4468 20.1267 9.55218 19.6104C8.65756 19.0941 7.91484 18.3516 7.39872 17.4576C6.88261 16.5636 6.6113 15.5496 6.61209 14.5176C6.61289 13.4857 6.88575 12.4721 7.40324 11.5789V11.5789L11.7733 4.00046C11.8475 3.87377 11.9537 3.76869 12.0812 3.69567C12.2086 3.62265 12.353 3.58423 12.5 3.58423C12.647 3.58423 12.7914 3.62265 12.9188 3.69567C13.0463 3.76869 13.1525 3.87377 13.2267 4.00046L17.5968 11.5589C18.1147 12.4528 18.3876 13.4673 18.3879 14.5001C18.3883 15.533 18.1161 16.5476 17.5988 17.4419C17.0815 18.3362 16.3373 19.0786 15.4413 19.5941C14.5453 20.1097 13.5291 20.3803 12.495 20.3787V20.3987Z" stroke="white" stroke-width="1.2" stroke-linecap="round" stroke-linejoin="round"/>
<path d="M15.4618 13.5817C15.6364 14.2145 15.5985 14.887 15.3542 15.4962C15.1098 16.1055 14.6724 16.6181 14.1087 16.9555" stroke="white" stroke-width="1.2" stroke-linecap="round" stroke-linejoin="round"/>
</svg>
