<svg width="24" height="24" viewBox="0 0 24 24" fill="none" xmlns="http://www.w3.org/2000/svg">
<path d="M10.7219 13.084H7.20314C7.09214 13.0887 6.98221 13.0611 6.88723 13.0049C6.79224 12.9486 6.71645 12.8662 6.66941 12.7679C6.62236 12.6697 6.60618 12.5601 6.62288 12.4529C6.63959 12.3457 6.68845 12.2457 6.76329 12.1656L14.7419 3.79954C14.8165 3.66715 14.9419 3.56911 15.0906 3.52699C15.2393 3.48486 15.399 3.5021 15.5346 3.57491C15.6703 3.64773 15.7707 3.77015 15.8139 3.91525C15.8571 4.06034 15.8394 4.21623 15.7648 4.34862L13.3814 10.6381" stroke="white" stroke-width="1.22" stroke-linecap="round" stroke-linejoin="round"/>
<path d="M13.515 10.8874H17.0337C17.1448 10.8855 17.254 10.9152 17.348 10.9728C17.4421 11.0304 17.517 11.1134 17.5636 11.2118C17.6102 11.3101 17.6265 11.4196 17.6105 11.5269C17.5946 11.6341 17.547 11.7345 17.4736 11.8159L9.49497 20.2118C9.45736 20.2774 9.40689 20.3351 9.34644 20.3816C9.28598 20.4281 9.21674 20.4625 9.14265 20.4829C9.06856 20.5033 8.99108 20.5093 8.91464 20.5004C8.83819 20.4916 8.76428 20.4682 8.69711 20.4315C8.62995 20.3947 8.57085 20.3455 8.52319 20.2865C8.47553 20.2275 8.44025 20.1599 8.41935 20.0876C8.39845 20.0153 8.39235 19.9397 8.4014 19.8651C8.41045 19.7905 8.43446 19.7183 8.47207 19.6528L10.8043 13.3633" stroke="white" stroke-width="1.22" stroke-linecap="round" stroke-linejoin="round"/>
</svg>
