<svg width="24" height="24" viewBox="0 0 24 24" fill="none" xmlns="http://www.w3.org/2000/svg">
<path d="M16.1395 10.6838C16.1786 10.2594 16.342 9.85532 16.6097 9.52061C16.8774 9.18589 17.2379 8.9349 17.6476 8.79808C18.0573 8.66127 18.4984 8.64451 18.9176 8.74984C19.3367 8.85517 19.7158 9.07806 20.0089 9.39148C20.302 9.70489 20.4964 10.0954 20.5686 10.5155C20.6409 10.9356 20.5878 11.3674 20.4158 11.7584C20.2438 12.1494 19.9603 12.4828 19.5997 12.7182C19.2392 12.9536 18.817 13.0809 18.3844 13.0845H4.86407" stroke="white" stroke-width="1.2" stroke-linecap="round" stroke-linejoin="round"/>
<path d="M9.28322 8.58181C9.32237 8.15942 9.48511 7.7573 9.7517 7.42422C10.0183 7.09115 10.3772 6.84143 10.7851 6.70537C11.1929 6.5693 11.632 6.55274 12.0492 6.65768C12.4664 6.76262 12.8437 6.98456 13.1353 7.29657C13.427 7.60859 13.6205 7.99727 13.6923 8.41547C13.7641 8.83368 13.7112 9.26343 13.54 9.6526C13.3688 10.0418 13.0866 10.3736 12.7277 10.608C12.3688 10.8423 11.9486 10.9689 11.5181 10.9726H3.60001" stroke="white" stroke-width="1.2" stroke-linecap="round" stroke-linejoin="round"/>
<path d="M13.3383 17.5972C13.3794 18.0214 13.5446 18.4247 13.8138 18.7582C14.083 19.0917 14.4446 19.3411 14.8549 19.4761C15.2651 19.6111 15.7063 19.6259 16.1249 19.5188C16.5436 19.4117 16.9217 19.1872 17.2133 18.8726C17.505 18.558 17.6977 18.1667 17.7681 17.7463C17.8385 17.3259 17.7836 16.8944 17.6099 16.5042C17.4363 16.1139 17.1514 15.7817 16.7899 15.5478C16.4284 15.3139 16.0057 15.1884 15.5732 15.1865H7.65512" stroke="white" stroke-width="1.2" stroke-linecap="round" stroke-linejoin="round"/>
</svg>
