<svg width="24" height="24" viewBox="0 0 24 24" fill="none" xmlns="http://www.w3.org/2000/svg">
<path d="M12.102 10.2738C16.7964 10.2738 20.602 8.78441 20.602 6.94721C20.602 5.11001 16.7964 3.62067 12.102 3.62067C7.40757 3.62067 3.60199 5.11001 3.60199 6.94721C3.60199 8.78441 7.40757 10.2738 12.102 10.2738Z" stroke="white" stroke-width="1.2" stroke-linecap="round" stroke-linejoin="round"/>
<path d="M17.3117 14.4398C15.302 14.601 13.282 14.5623 11.2794 14.3244C10.0202 14.146 7.0548 13.9046 7.15635 11.9948C7.2376 10.7565 8.46639 10.3367 9.69518 10.1793" stroke="white" stroke-width="1.2" stroke-linecap="round" stroke-linejoin="round"/>
<path d="M12.7824 14.4503C11.7669 14.5972 10.4771 14.3978 9.64439 15.1639C9.46871 15.3269 9.33414 15.5318 9.25236 15.7607C9.17058 15.9895 9.14404 16.2356 9.17505 16.4775C9.20606 16.7194 9.29369 16.9498 9.43033 17.1488C9.56697 17.3478 9.7485 17.5093 9.95921 17.6195C10.8021 18.1127 11.7669 17.8293 12.691 17.9133C14.722 18.1022 14.722 20.5262 12.691 20.6207" stroke="white" stroke-width="1.2" stroke-linecap="round" stroke-linejoin="round"/>
</svg>
